<?xml version="1.0" encoding="UTF-8" standalone="no"?><!DOCTYPE svg PUBLIC "-//W3C//DTD SVG 1.1//EN" "http://www.w3.org/Graphics/SVG/1.1/DTD/svg11.dtd"><svg width="100%" height="100%" viewBox="0 0 134 100" version="1.1" xmlns="http://www.w3.org/2000/svg" xmlns:xlink="http://www.w3.org/1999/xlink" xml:space="preserve" xmlns:serif="http://www.serif.com/" style="fill-rule:evenodd;clip-rule:evenodd;stroke-linejoin:round;stroke-miterlimit:2;"><path d="M123.348,-0l-113.362,-0c-5.515,-0 -9.986,5.118 -9.986,11.431l0,21.902l133.333,0l0,-21.902c0,-6.313 -4.47,-11.431 -9.985,-11.431Z" style="fill:#009a40;fill-rule:nonzero;"/><path d="M0,88.569c0,6.313 4.471,11.431 9.986,11.431l113.362,-0c5.514,-0 9.985,-5.118 9.985,-11.431l0,-21.902l-133.333,-0l-0,21.902Z" style="fill:#ef3340;fill-rule:nonzero;"/><rect x="0" y="33.333" width="133.333" height="33.332" style="fill:#fedd00;"/><path d="M99.987,50.014c0,18.375 -14.918,33.32 -33.32,33.32c-18.402,-0 -33.321,-14.945 -33.321,-33.32c0,-18.429 14.919,-33.347 33.321,-33.347c18.401,-0 33.32,14.918 33.32,33.347Z" style="fill:#0645b0;fill-rule:nonzero;"/><path d="M41.324,41.637l19.359,-0l4.381,-13.482l1.164,3.616l-6.362,19.599l-1.895,-1.383l1.982,-6.089l-15.57,-0l-3.059,-2.261Zm9.673,29.81l5.983,-18.402l-11.467,-8.35l3.782,-0l16.667,12.1l-1.894,1.382l-5.193,-3.776l-4.819,14.839l-3.059,2.207Zm31.339,-0l-15.669,-11.381l-11.462,8.323l1.171,-3.563l16.653,-12.127l0.712,2.234l-5.179,3.75l12.598,9.175l1.176,3.589Zm9.673,-29.81l-15.656,11.408l4.381,13.483l-3.058,-2.235l-6.356,-19.598l2.327,-0l1.981,6.116l12.605,-9.175l3.776,0l-0,0.001l-0,-0Zm-25.342,-18.402l5.983,18.402l14.181,-0l-3.065,2.261l-20.596,-0l0.725,-2.261l6.421,-0l-4.82,-14.812l1.171,-3.59Z" style="fill:#f2dd30;fill-rule:nonzero;"/><path d="M67.225,76.66l-1.11,-0l-0,-14.44l1.11,0l-0,14.44Zm24.618,-17.924l-13.728,-4.441l0.345,-1.037l13.735,4.441l-0.352,1.037Zm-50.36,-0l-0.345,-1.037l13.741,-4.441l0.34,1.037l-13.736,4.441Zm32.823,-18.296l-0.905,-0.638l8.49,-11.674l0.884,0.638l-8.469,11.674Zm-15.258,-0l-8.504,-11.674l0.898,-0.638l8.484,11.674l-0.878,0.638Z" style="fill:#f2dd30;fill-rule:nonzero;"/></svg>