<?xml version="1.0" encoding="UTF-8" standalone="no"?>
<!DOCTYPE svg PUBLIC "-//W3C//DTD SVG 1.1//EN" "http://www.w3.org/Graphics/SVG/1.1/DTD/svg11.dtd">
<svg width="100%" height="100%" viewBox="0 0 642 587" version="1.1" xmlns="http://www.w3.org/2000/svg" xmlns:xlink="http://www.w3.org/1999/xlink" xml:space="preserve" xmlns:serif="http://www.serif.com/" style="fill-rule:evenodd;clip-rule:evenodd;stroke-linejoin:round;stroke-miterlimit:2;">
    <g transform="matrix(1,0,0,1,-16.433,523.215)">
        <text x="0px" y="0px" style="font-family:'EthiopicAddis', 'Ethiopic Addis';font-size:657.305px;fill:url(#_Linear1);">ሀ</text>
    </g>
    <g>
        <clipPath id="_clip2">
            <path d="M641.201,324.762L641.201,429.274L534.06,429.274C527.487,467.836 511.055,500.263 484.763,526.555C444.448,566.431 396.684,586.37 341.47,586.37C286.256,586.37 236.739,565.993 192.919,525.24C160.93,489.746 144.936,444.173 144.936,388.521L144.936,62.497L248.133,62.497L248.133,388.521C248.133,415.689 257.006,439.571 274.754,460.167C292.501,480.763 314.74,491.06 341.47,491.06C368.2,491.06 390.439,480.763 408.186,460.167C425.934,439.571 434.807,415.689 434.807,388.521L434.807,62.497L538.004,62.497L538.004,324.762L641.201,324.762Z"/>
        </clipPath>
        <g clip-path="url(#_clip2)">
            <g transform="matrix(1,0,0,1,128.503,585.055)">
                <text x="0px" y="0px" style="font-family:'EthiopicAddis', 'Ethiopic Addis';font-size:657.305px;fill:rgb(68,0,101);">ሁ</text>
            </g>
        </g>
    </g>
    <defs>
        <linearGradient id="_Linear1" x1="0" y1="0" x2="1" y2="0" gradientUnits="userSpaceOnUse" gradientTransform="matrix(393.068,0,0,393.068,-2.27374e-13,261.936)"><stop offset="0" style="stop-color:rgb(52,0,77);stop-opacity:0.92"/><stop offset="0.43" style="stop-color:rgb(9,110,67);stop-opacity:0.92"/><stop offset="1" style="stop-color:rgb(31,153,46);stop-opacity:0.92"/></linearGradient>
    </defs>
</svg>
