<?xml version="1.0" encoding="UTF-8" standalone="no"?><!DOCTYPE svg PUBLIC "-//W3C//DTD SVG 1.1//EN" "http://www.w3.org/Graphics/SVG/1.1/DTD/svg11.dtd"><svg width="100%" height="100%" viewBox="0 0 642 587" version="1.1" xmlns="http://www.w3.org/2000/svg" xmlns:xlink="http://www.w3.org/1999/xlink" xml:space="preserve" xmlns:serif="http://www.serif.com/" style="fill-rule:evenodd;clip-rule:evenodd;stroke-linejoin:round;stroke-miterlimit:2;"><g transform="matrix(657.305,0,0,657.305,409.501,523.215)"></g><text x="-16.433px" y="523.215px" style="font-family:'EthiopicAddis', 'Ethiopic Addis';font-size:657.305px;fill:url(#_Linear1);">ሀ</text><clipPath id="_clip2"><path d="M641.201,324.762l0,104.512l-107.141,-0c-6.573,38.562 -23.005,70.989 -49.297,97.281c-40.315,39.876 -88.079,59.815 -143.293,59.815c-55.214,-0 -104.731,-20.377 -148.551,-61.13c-31.989,-35.494 -47.983,-81.067 -47.983,-136.719l-0,-326.024l103.197,0l-0,326.024c-0,27.168 8.873,51.05 26.621,71.646c17.747,20.596 39.986,30.893 66.716,30.893c26.73,0 48.969,-10.297 66.716,-30.893c17.748,-20.596 26.621,-44.478 26.621,-71.646l0,-326.024l103.197,0l0,262.265l103.197,0Z" clip-rule="nonzero"/></clipPath><g clip-path="url(#_clip2)"><g transform="matrix(657.305,0,0,657.305,657.634,585.055)"></g><text x="128.503px" y="585.055px" style="font-family:'EthiopicAddis', 'Ethiopic Addis';font-size:657.305px;fill:#009f4c;">ሁ</text></g><defs><linearGradient id="_Linear1" x1="0" y1="0" x2="1" y2="0" gradientUnits="userSpaceOnUse" gradientTransform="matrix(393.068,0,0,523.872,-2.27374e-13,261.936)"><stop offset="0" style="stop-color:#009f4c;stop-opacity:0.92"/><stop offset="0.43" style="stop-color:#096e43;stop-opacity:0.92"/><stop offset="1" style="stop-color:#1f002e;stop-opacity:0.92"/></linearGradient></defs></svg>