<?xml version="1.0" encoding="UTF-8" standalone="no"?>
<!DOCTYPE svg PUBLIC "-//W3C//DTD SVG 1.1//EN" "http://www.w3.org/Graphics/SVG/1.1/DTD/svg11.dtd">
<svg width="100%" height="100%" viewBox="0 0 86 129" version="1.1" xmlns="http://www.w3.org/2000/svg" xmlns:xlink="http://www.w3.org/1999/xlink" xml:space="preserve" xmlns:serif="http://www.serif.com/" style="fill-rule:evenodd;clip-rule:evenodd;stroke-linejoin:round;stroke-miterlimit:2;">
    <g transform="matrix(1,0,0,1,-264.48,-198.338)">
        <g transform="matrix(1.06876,0.00698056,-0.00698056,1.06876,243.057,197.916)">
            <path d="M100.281,80.814C100.281,102.827 82.437,120.671 60.428,120.671C38.418,120.671 20.574,102.827 20.574,80.814C20.574,46.016 60.428,0 60.428,0C60.428,0 100.281,46.016 100.281,80.814Z" style="fill:rgb(105,73,255);fill-rule:nonzero;"/>
        </g>
        <g transform="matrix(1.06878,0,0,1.06878,242.634,198.336)">
            <path d="M57.283,13.519C57.243,13.18 56.811,12.966 56.509,13.047C54.667,13.534 53.439,16.013 52.402,17.486C51.011,19.456 49.697,21.46 48.443,23.522C47.196,25.574 45.967,27.644 44.823,29.758C43.853,31.551 41.882,34.068 42.067,36.16C42.152,37.16 43.163,38.089 44.188,37.462C46.059,36.315 46.86,33.555 47.875,31.666C49.011,29.544 50.144,27.422 51.328,25.327C52.513,23.231 53.701,21.135 54.893,19.046C55.819,17.423 57.52,15.46 57.283,13.519Z" style="fill:white;fill-rule:nonzero;"/>
        </g>
        <g transform="matrix(1.06878,0,0,1.06878,242.634,198.336)">
            <path d="M40.916,40.263C39.898,39.949 39.035,40.558 38.651,41.462C38.433,41.975 38.215,42.484 37.998,42.993C37.632,43.635 37.334,44.318 37.127,45.045C36.861,45.963 37.37,46.971 38.293,47.255C39.304,47.565 40.105,46.96 40.503,46.089C41.042,44.901 41.577,43.716 42.116,42.532C42.521,41.639 41.769,40.525 40.916,40.263Z" style="fill:white;fill-rule:nonzero;"/>
        </g>
        <g transform="matrix(1.06878,0,0,1.06878,242.634,198.336)">
            <path d="M27.016,87.289C27.271,93.2 32.278,97.783 38.193,97.525C44.111,97.27 48.701,92.274 48.443,86.363C48.188,80.456 43.181,75.873 37.266,76.128C31.348,76.386 26.758,81.382 27.016,87.289Z" style="fill:white;fill-rule:nonzero;"/>
        </g>
        <g transform="matrix(1.06878,0,0,1.06878,242.634,198.336)">
            <path d="M42.503,90.976C41.843,91.729 40.802,91.891 40.179,91.345C39.555,90.795 39.585,89.743 40.245,88.994C40.906,88.242 41.95,88.079 42.573,88.625C43.197,89.175 43.164,90.227 42.503,90.976ZM36.821,86.072C35.677,87.367 33.877,87.651 32.799,86.703C31.722,85.759 31.773,83.939 32.917,82.641C34.057,81.346 35.858,81.061 36.935,82.006C38.013,82.954 37.961,84.773 36.821,86.072ZM45.105,86.507C44.928,82.438 41.478,79.283 37.404,79.46C33.327,79.633 30.168,83.076 30.342,87.146C30.519,91.216 33.965,94.374 38.042,94.197C42.12,94.02 45.278,90.577 45.105,86.507Z" style="fill:rgb(19,52,65);fill-rule:nonzero;"/>
        </g>
        <g transform="matrix(1.06878,0,0,1.06878,242.634,198.336)">
            <path d="M73.146,87.289C73.401,93.2 78.408,97.783 84.323,97.525C90.241,97.27 94.831,92.274 94.573,86.363C94.318,80.456 89.311,75.873 83.396,76.128C77.478,76.386 72.888,81.382 73.146,87.289Z" style="fill:white;fill-rule:nonzero;"/>
        </g>
        <g transform="matrix(1.06878,0,0,1.06878,242.634,198.336)">
            <path d="M89.131,90.71C88.467,91.459 87.426,91.625 86.802,91.079C86.179,90.529 86.208,89.478 86.869,88.725C87.533,87.976 88.574,87.81 89.197,88.36C89.821,88.906 89.791,89.961 89.131,90.71ZM83.05,85.64C81.751,86.781 79.932,86.84 78.98,85.762C78.028,84.688 78.312,82.891 79.607,81.748C80.902,80.604 82.725,80.549 83.677,81.622C84.625,82.696 84.345,84.497 83.05,85.64ZM91.23,86.507C91.057,82.438 87.607,79.283 83.533,79.46C79.456,79.633 76.294,83.076 76.471,87.146C76.648,91.216 80.098,94.374 84.172,94.197C88.249,94.02 91.407,90.577 91.23,86.507Z" style="fill:rgb(19,52,65);fill-rule:nonzero;"/>
        </g>
        <g transform="matrix(1.06878,0,0,1.06878,242.634,198.336)">
            <path d="M76.061,66.656C75.814,68.538 79.116,69.638 82.817,70.047C86.134,70.416 89.329,71.069 90.093,68.664C91.658,63.719 76.814,60.996 76.061,66.656Z" style="fill:rgb(19,52,65);fill-rule:nonzero;"/>
        </g>
        <g transform="matrix(1.06878,0,0,1.06878,242.634,198.336)">
            <path d="M31.485,68.619C32.23,71.024 35.433,70.394 38.75,70.05C42.454,69.667 45.764,68.586 45.528,66.704C44.816,61.04 29.953,63.663 31.485,68.619Z" style="fill:rgb(19,52,65);fill-rule:nonzero;"/>
        </g>
        <g transform="matrix(-1.06878,0,0,1.06878,374.943,198.336)">
            <path d="M55.491,93.89C56.151,96.499 59.107,97.691 61.579,97.824C63.601,97.934 68.66,96.82 68.298,93.953C68.235,93.47 67.804,92.931 67.239,93.145C66.269,93.51 65.688,94.423 64.814,94.969C63.851,95.567 62.896,95.802 61.778,95.79C59.756,95.765 57.605,95.034 56.31,93.411C55.989,93.008 55.38,93.451 55.491,93.89Z" style="fill:rgb(19,52,65);fill-rule:nonzero;"/>
        </g>
    </g>
</svg>
