<?xml version="1.0" encoding="UTF-8" standalone="no"?>
<!DOCTYPE svg PUBLIC "-//W3C//DTD SVG 1.1//EN" "http://www.w3.org/Graphics/SVG/1.1/DTD/svg11.dtd">
<svg width="100%" height="100%" viewBox="0 0 151 175" version="1.1" xmlns="http://www.w3.org/2000/svg" xmlns:xlink="http://www.w3.org/1999/xlink" xml:space="preserve" xmlns:serif="http://www.serif.com/" style="fill-rule:evenodd;clip-rule:evenodd;stroke-linejoin:round;stroke-miterlimit:2;">
    <g transform="matrix(1,0,0,1,-48.1553,-406.583)">
        <g transform="matrix(1.25747,0,0,1.25747,48.1553,406.582)">
            <path d="M101.694,108.166L101.65,108.166C98.097,108.14 94.994,105.044 92.422,98.964C92.104,98.215 92.455,97.348 93.204,97.03C93.957,96.713 94.82,97.063 95.141,97.813C96.565,101.178 98.853,105.196 101.668,105.214L101.694,105.214C105.609,105.214 109.742,97.838 110.882,95.248C111.21,94.503 112.081,94.163 112.826,94.492C113.572,94.82 113.911,95.695 113.583,96.44C113.051,97.643 108.225,108.166 101.694,108.166Z" style="fill:rgb(19,52,65);fill-rule:nonzero;"/>
        </g>
        <g transform="matrix(1.25747,0,0,1.25747,48.1553,406.582)">
            <path d="M118.203,94.326C117.458,94.481 116.83,94.481 116.299,94.393C117.332,93.821 118.273,92.865 118.812,91.334C119.085,90.563 118.675,89.71 117.904,89.43C117.133,89.15 116.284,89.548 116.015,90.319C115.288,92.389 113.251,92.205 112.86,92.149L112.834,92.149L112.816,92.142C112.403,92.09 111.86,91.954 111.624,91.629C111.392,91.308 111.462,90.828 111.469,90.788C111.639,90.002 111.141,89.212 110.351,89.02C109.554,88.828 108.761,89.316 108.576,90.113C108.536,90.29 108.207,91.884 109.189,93.293C109.55,93.813 110.185,94.437 111.274,94.813C111.93,98.975 114.901,100.514 116.498,100.739C116.565,100.75 116.635,100.754 116.701,100.754C117.428,100.761 118.063,100.223 118.162,99.481C118.266,98.669 117.694,97.916 116.882,97.802C116.871,97.798 116.384,97.721 115.819,97.319C116.185,97.381 116.572,97.422 116.985,97.426C117.553,97.429 118.17,97.374 118.834,97.234C119.635,97.068 120.14,96.282 119.967,95.481C119.79,94.677 119,94.164 118.203,94.326Z" style="fill:rgb(19,52,65);fill-rule:nonzero;"/>
        </g>
        <g transform="matrix(1.25747,0,0,1.25747,48.1553,406.582)">
            <path d="M73.427,138.651C73.393,138.651 73.36,138.648 73.327,138.648C70.825,138.482 69.545,137.526 69.409,137.419C68.977,137.08 68.766,136.526 68.87,135.987L72.549,116.24C72.7,115.435 73.467,114.908 74.272,115.059C75.072,115.206 75.6,115.978 75.452,116.778L71.977,135.423C72.346,135.541 72.858,135.659 73.523,135.703C74.338,135.755 74.951,136.46 74.899,137.271C74.847,138.054 74.198,138.651 73.427,138.651Z" style="fill:rgb(19,52,65);fill-rule:nonzero;"/>
        </g>
        <g transform="matrix(1.25747,0,0,1.25747,48.1553,406.582)">
            <path d="M37.861,138.651C37.09,138.651 36.44,138.054 36.389,137.271C36.337,136.46 36.95,135.755 37.765,135.703C38.754,135.637 39.407,135.412 39.761,135.249L45.813,118.398C46.089,117.631 46.934,117.228 47.702,117.505C48.469,117.782 48.868,118.627 48.591,119.394L42.359,136.755C42.263,137.017 42.097,137.246 41.879,137.419C41.743,137.526 40.462,138.482 37.961,138.648C37.927,138.651 37.894,138.651 37.861,138.651Z" style="fill:rgb(19,52,65);fill-rule:nonzero;"/>
        </g>
        <g transform="matrix(1.25747,0,0,1.25747,48.1553,406.582)">
            <path d="M7.571,108.782C6.811,108.782 6.162,108.196 6.103,107.424C6.036,106.609 6.641,105.9 7.457,105.834C10.257,105.609 19.932,99.082 25.371,95.016C26.024,94.529 26.95,94.661 27.437,95.315C27.924,95.968 27.791,96.894 27.138,97.381C24.673,99.222 12.158,108.421 7.689,108.779C7.649,108.779 7.612,108.782 7.571,108.782Z" style="fill:rgb(19,52,65);fill-rule:nonzero;"/>
        </g>
        <g transform="matrix(1.25747,0,0,1.25747,48.1553,406.582)">
            <path d="M5.129,110.878C4.557,110.878 4.014,110.546 3.775,109.989C3.568,109.52 3.627,109 3.885,108.601C1.745,108.184 0.679,107.336 0.52,107.199C-0.1,106.672 -0.177,105.742 0.35,105.118C0.874,104.506 1.789,104.424 2.413,104.934C2.513,105.011 4.022,106.111 7.475,105.834C8.04,105.786 8.582,106.07 8.866,106.561C9.154,107.048 9.136,107.657 8.818,108.129C8.697,108.314 7.557,109.952 5.715,110.752C5.524,110.837 5.324,110.878 5.129,110.878Z" style="fill:rgb(19,52,65);fill-rule:nonzero;"/>
        </g>
        <g transform="matrix(1.25747,0,0,1.25747,48.1553,406.582)">
            <path d="M100.281,80.814C100.281,102.827 82.437,120.671 60.428,120.671C38.418,120.671 20.574,102.827 20.574,80.814C20.574,46.016 60.428,0 60.428,0C60.428,0 100.281,46.016 100.281,80.814Z" style="fill:rgb(105,73,255);fill-rule:nonzero;"/>
        </g>
        <g transform="matrix(1.25747,0,0,1.25747,48.1553,406.582)">
            <path d="M60.085,117.852C44.37,117.852 31.633,108.074 31.633,96.012C31.633,83.95 44.37,74.172 60.085,74.172C75.8,74.172 88.537,83.95 88.537,96.012C88.537,108.074 75.8,117.852 60.085,117.852Z" style="fill:rgb(103,58,179);fill-rule:nonzero;"/>
        </g>
        <g transform="matrix(1.25747,0,0,1.25747,48.1553,406.582)">
            <path d="M57.283,13.519C57.243,13.18 56.811,12.966 56.509,13.047C54.667,13.534 53.439,16.013 52.402,17.486C51.011,19.456 49.697,21.46 48.443,23.522C47.196,25.574 45.967,27.644 44.823,29.758C43.853,31.551 41.882,34.068 42.067,36.16C42.152,37.16 43.163,38.089 44.188,37.462C46.059,36.315 46.86,33.555 47.875,31.666C49.011,29.544 50.144,27.422 51.328,25.327C52.513,23.231 53.701,21.135 54.893,19.046C55.819,17.423 57.52,15.46 57.283,13.519Z" style="fill:white;fill-rule:nonzero;"/>
        </g>
        <g transform="matrix(1.25747,0,0,1.25747,48.1553,406.582)">
            <path d="M40.916,40.263C39.898,39.949 39.035,40.558 38.651,41.462C38.433,41.975 38.215,42.484 37.998,42.993C37.632,43.635 37.334,44.318 37.127,45.045C36.861,45.963 37.37,46.971 38.293,47.255C39.304,47.565 40.105,46.96 40.503,46.089C41.042,44.901 41.577,43.716 42.116,42.532C42.521,41.639 41.769,40.525 40.916,40.263Z" style="fill:white;fill-rule:nonzero;"/>
        </g>
        <g transform="matrix(1.25747,0,0,1.25747,48.1553,406.582)">
            <path d="M27.016,87.289C27.271,93.2 32.278,97.783 38.193,97.525C44.111,97.27 48.701,92.274 48.443,86.363C48.188,80.456 43.181,75.873 37.266,76.128C31.348,76.386 26.758,81.382 27.016,87.289Z" style="fill:white;fill-rule:nonzero;"/>
        </g>
        <g transform="matrix(1.25747,0,0,1.25747,48.1553,406.582)">
            <path d="M42.503,90.976C41.843,91.729 40.802,91.891 40.179,91.345C39.555,90.795 39.585,89.743 40.245,88.994C40.906,88.242 41.95,88.079 42.573,88.625C43.197,89.175 43.164,90.227 42.503,90.976ZM36.821,86.072C35.677,87.367 33.877,87.651 32.799,86.703C31.722,85.759 31.773,83.939 32.917,82.641C34.057,81.346 35.858,81.061 36.935,82.006C38.013,82.954 37.961,84.773 36.821,86.072ZM45.105,86.507C44.928,82.438 41.478,79.283 37.404,79.46C33.327,79.633 30.168,83.076 30.342,87.146C30.519,91.216 33.965,94.374 38.042,94.197C42.12,94.02 45.278,90.577 45.105,86.507Z" style="fill:rgb(19,52,65);fill-rule:nonzero;"/>
        </g>
        <g transform="matrix(1.25747,0,0,1.25747,48.1553,406.582)">
            <path d="M73.146,87.289C73.401,93.2 78.408,97.783 84.323,97.525C90.241,97.27 94.831,92.274 94.573,86.363C94.318,80.456 89.311,75.873 83.396,76.128C77.478,76.386 72.888,81.382 73.146,87.289Z" style="fill:white;fill-rule:nonzero;"/>
        </g>
        <g transform="matrix(1.25747,0,0,1.25747,48.1553,406.582)">
            <path d="M89.131,90.71C88.467,91.459 87.426,91.625 86.802,91.079C86.179,90.529 86.208,89.478 86.869,88.725C87.533,87.976 88.574,87.81 89.197,88.36C89.821,88.906 89.791,89.961 89.131,90.71ZM83.05,85.64C81.751,86.781 79.932,86.84 78.98,85.762C78.028,84.688 78.312,82.891 79.607,81.748C80.902,80.604 82.725,80.549 83.677,81.622C84.625,82.696 84.345,84.497 83.05,85.64ZM91.23,86.507C91.057,82.438 87.607,79.283 83.533,79.46C79.456,79.633 76.294,83.076 76.471,87.146C76.648,91.216 80.098,94.374 84.172,94.197C88.249,94.02 91.407,90.577 91.23,86.507Z" style="fill:rgb(19,52,65);fill-rule:nonzero;"/>
        </g>
        <g transform="matrix(1.25747,0,0,1.25747,48.1553,406.582)">
            <path d="M76.061,66.656C75.814,68.538 79.116,69.638 82.817,70.047C86.134,70.416 89.329,71.069 90.093,68.664C91.658,63.719 76.814,60.996 76.061,66.656Z" style="fill:rgb(19,52,65);fill-rule:nonzero;"/>
        </g>
        <g transform="matrix(1.25747,0,0,1.25747,48.1553,406.582)">
            <path d="M31.485,68.619C32.23,71.024 35.433,70.394 38.75,70.05C42.454,69.667 45.764,68.586 45.528,66.704C44.816,61.04 29.953,63.663 31.485,68.619Z" style="fill:rgb(19,52,65);fill-rule:nonzero;"/>
        </g>
        <g transform="matrix(1.25747,0,0,1.25747,48.1553,406.582)">
            <path d="M95.392,100.362C95.392,101.738 93.304,102.853 90.732,102.853C88.16,102.853 86.075,101.738 86.075,100.362C86.075,98.986 88.16,97.871 90.732,97.871C93.304,97.871 95.392,98.986 95.392,100.362Z" style="fill:rgb(165,146,255);fill-rule:nonzero;"/>
        </g>
        <g transform="matrix(1.25747,0,0,1.25747,48.1553,406.582)">
            <path d="M34.603,100.362C34.603,101.738 32.514,102.853 29.943,102.853C27.371,102.853 25.286,101.738 25.286,100.362C25.286,98.986 27.371,97.871 29.943,97.871C32.514,97.871 34.603,98.986 34.603,100.362Z" style="fill:rgb(165,146,255);fill-rule:nonzero;"/>
        </g>
        <g transform="matrix(1.25747,0,0,1.25747,48.1553,406.582)">
            <path d="M55.491,93.89C56.151,96.499 59.107,97.691 61.579,97.824C63.601,97.934 68.66,96.82 68.298,93.953C68.235,93.47 67.804,92.931 67.239,93.145C66.269,93.51 65.892,94.444 65.018,94.99C64.055,95.588 62.896,95.802 61.778,95.79C59.756,95.765 57.605,95.034 56.31,93.411C55.989,93.008 55.38,93.451 55.491,93.89Z" style="fill:rgb(19,52,65);fill-rule:nonzero;"/>
        </g>
    </g>
</svg>
