<?xml version="1.0" encoding="UTF-8" standalone="no"?>
<!DOCTYPE svg PUBLIC "-//W3C//DTD SVG 1.1//EN" "http://www.w3.org/Graphics/SVG/1.1/DTD/svg11.dtd">
<svg width="100%" height="100%" viewBox="0 0 86 130" version="1.1" xmlns="http://www.w3.org/2000/svg" xmlns:xlink="http://www.w3.org/1999/xlink" xml:space="preserve" xmlns:serif="http://www.serif.com/" style="fill-rule:evenodd;clip-rule:evenodd;stroke-linecap:round;stroke-linejoin:round;stroke-miterlimit:1.5;">
    <g transform="matrix(1,0,0,1,-504.429,-270.71)">
        <g transform="matrix(1.06691,0,0,1.07135,482.478,270.71)">
            <path d="M100.281,80.814C100.281,102.827 82.437,120.671 60.428,120.671C38.418,120.671 20.574,102.827 20.574,80.814C20.574,46.016 60.428,0 60.428,0C60.428,0 100.281,46.016 100.281,80.814Z" style="fill:rgb(255,74,73);fill-rule:nonzero;"/>
        </g>
        <g transform="matrix(1.06691,0,0,1.05667,482.478,272.482)">
            <path d="M57.283,13.519C57.243,13.18 56.811,12.966 56.509,13.047C54.667,13.534 53.439,16.013 52.402,17.486C51.011,19.456 49.697,21.46 48.443,23.522C47.196,25.574 45.967,27.644 44.823,29.758C43.853,31.551 41.882,34.068 42.067,36.16C42.152,37.16 43.163,38.089 44.188,37.462C46.059,36.315 46.86,33.555 47.875,31.666C49.011,29.544 50.144,27.422 51.328,25.327C52.513,23.231 53.701,21.135 54.893,19.046C55.819,17.423 57.52,15.46 57.283,13.519Z" style="fill:white;fill-rule:nonzero;"/>
        </g>
        <g transform="matrix(1.06691,0,0,1.05667,482.478,272.482)">
            <path d="M40.916,40.263C39.898,39.949 39.035,40.558 38.651,41.462C38.433,41.975 38.215,42.484 37.998,42.993C37.632,43.635 37.334,44.318 37.127,45.045C36.861,45.963 37.37,46.971 38.293,47.255C39.304,47.565 40.105,46.96 40.503,46.089C41.042,44.901 41.577,43.716 42.116,42.532C42.521,41.639 41.769,40.525 40.916,40.263Z" style="fill:white;fill-rule:nonzero;"/>
        </g>
        <g transform="matrix(1.06691,0,0,1.05667,482.478,272.482)">
            <path d="M27.016,87.289C27.271,93.2 32.278,97.783 38.193,97.525C44.111,97.27 48.701,92.274 48.443,86.363C48.188,80.456 43.181,75.873 37.266,76.128C31.348,76.386 26.758,81.382 27.016,87.289Z" style="fill:white;fill-rule:nonzero;"/>
        </g>
        <g transform="matrix(1.06691,0,0,1.05667,482.478,272.482)">
            <path d="M73.146,87.289C73.401,93.2 78.408,97.783 84.323,97.525C90.241,97.27 94.831,92.274 94.573,86.363C94.318,80.456 89.311,75.873 83.396,76.128C77.478,76.386 72.888,81.382 73.146,87.289Z" style="fill:white;fill-rule:nonzero;"/>
        </g>
        <g transform="matrix(1.06691,0,0,1.05667,-32.6067,-23.6126)">
            <path d="M512.83,363.005L527.146,371.237" style="fill:none;stroke:black;stroke-width:0.94px;"/>
        </g>
        <g transform="matrix(1.06691,0,0,1.05667,-32.2248,-23.8017)">
            <path d="M512.83,363.005L527.146,371.237" style="fill:none;stroke:rgb(0,5,59);stroke-width:3.22px;"/>
        </g>
        <g transform="matrix(-1.06691,0,0,1.05667,1077.34,-23.8017)">
            <path d="M512.83,363.005L527.146,371.237" style="fill:none;stroke:rgb(0,5,59);stroke-width:3.22px;"/>
        </g>
        <g transform="matrix(1.06691,0,0,1.05667,17.3219,-23.8017)">
            <path d="M512.83,363.005L527.146,371.237" style="fill:none;stroke:rgb(0,5,59);stroke-width:3.22px;"/>
        </g>
        <g transform="matrix(-1.06691,0,0,1.05667,1126.88,-23.8017)">
            <path d="M512.83,363.005L527.146,371.237" style="fill:none;stroke:rgb(0,5,59);stroke-width:3.22px;"/>
        </g>
        <g transform="matrix(1.06691,0,0,1.05667,482.478,272.482)">
            <path d="M76.061,66.656C75.814,68.538 79.116,69.638 82.817,70.047C86.134,70.416 89.329,71.069 90.093,68.664C91.658,63.719 76.814,60.996 76.061,66.656Z" style="fill:rgb(19,52,65);fill-rule:nonzero;"/>
        </g>
        <g transform="matrix(1.06691,0,0,1.05667,482.478,272.482)">
            <path d="M31.485,68.619C32.23,71.024 35.433,70.394 38.75,70.05C42.454,69.667 45.764,68.586 45.528,66.704C44.816,61.04 29.953,63.663 31.485,68.619Z" style="fill:rgb(19,52,65);fill-rule:nonzero;"/>
        </g>
        <g transform="matrix(1.06691,0,0,-1.05667,482.478,474.229)">
            <path d="M55.491,93.89C56.151,96.499 59.107,97.691 61.579,97.824C63.601,97.934 68.66,96.82 68.298,93.953C68.235,93.47 67.804,92.931 67.239,93.145C66.269,93.51 65.892,94.444 65.018,94.99C64.055,95.588 62.896,95.802 61.778,95.79C59.756,95.765 57.605,95.034 56.31,93.411C55.989,93.008 55.38,93.451 55.491,93.89Z" style="fill:rgb(19,52,65);fill-rule:nonzero;"/>
        </g>
    </g>
</svg>
