<?xml version="1.0" encoding="UTF-8" standalone="no"?>
<!DOCTYPE svg PUBLIC "-//W3C//DTD SVG 1.1//EN" "http://www.w3.org/Graphics/SVG/1.1/DTD/svg11.dtd">
<svg width="100%" height="100%" viewBox="0 0 800 800" version="1.1" xmlns="http://www.w3.org/2000/svg" xmlns:xlink="http://www.w3.org/1999/xlink" xml:space="preserve" xmlns:serif="http://www.serif.com/" style="fill-rule:evenodd;clip-rule:evenodd;stroke-linejoin:round;stroke-miterlimit:2;">
    <g id="ic_fluent_translate_24_regular" transform="matrix(1.29193,0,0,1.33143,-75.7596,-120.726)">
        <g id="🔍-System-Icons">
            <g id="ic_fluent_translate_24_regular1" serif:id="ic_fluent_translate_24_regular">
                <path id="🎨-Color" d="M265.411,217.662C306.528,229.725 328.974,254.697 340.003,282.335C348.103,302.635 349.647,323.564 349.936,338.836L350.001,541.667C350.001,555.473 338.807,566.667 325,566.667C311.193,566.667 300,555.473 300,541.667L300,531.647C295.853,534.113 291.453,536.603 286.831,539.057C255.098,555.907 209.236,573.013 161.586,564.437C108.794,554.937 75.729,511.277 68.247,466.05C60.632,420.027 78.773,368.143 131.648,342.817C179.647,319.826 231.314,321.871 269.066,328.581C280.45,330.604 290.829,333.097 299.803,335.603C299.367,323.895 297.977,311.93 293.562,300.865C288.018,286.969 277.184,273.23 251.416,265.663C194.919,249.237 150.54,269.563 137.044,277.01C124.955,283.68 109.747,279.288 103.077,267.199C96.406,255.111 100.798,239.903 112.887,233.232L117.985,230.543C141.111,218.87 196.498,197.612 265.411,217.662ZM153.248,387.91C123.542,402.14 112.997,430.21 117.576,457.89C122.288,486.37 142.296,510.163 170.442,515.227C201.723,520.857 235.354,509.78 263.382,494.897C274.747,488.863 284.593,482.52 292.203,477.174L300,471.487L300,387.953C290.238,384.67 276.429,380.673 260.317,377.81C227.438,371.967 187.829,371.347 153.248,387.91Z" style="fill:rgb(33,33,33);fill-rule:nonzero;"/>
                <g transform="matrix(1.0699,0,0,1.0699,-106.73,-32.4418)">
                    <g transform="matrix(456.703,0,0,456.703,770.208,549.827)">
                    </g>
                    <text x="446.859px" y="549.827px" style="font-family:'A0AddisAbebaUnicode', 'A0 Addis Abeba Unicode';font-size:456.703px;fill:rgb(39,39,39);">አ</text>
                </g>
            </g>
        </g>
    </g>
</svg>
